<svg width="9" height="7" viewBox="0 0 9 7" fill="none" xmlns="http://www.w3.org/2000/svg">
<path fill-rule="evenodd" clip-rule="evenodd" d="M1.60362 2.36824e-07H6.47909C6.65636 -4.72537e-06 6.80932 -9.10916e-06 6.93592 0.00862868C7.06922 0.0177234 7.20255 0.0377296 7.33427 0.0922894C7.63134 0.215341 7.86736 0.451365 7.99042 0.748439C8.04498 0.880158 8.06498 1.01349 8.07408 1.14678C8.08271 1.27338 8.08271 1.42634 8.0827 1.60361V4.86255C8.08271 5.03982 8.08271 5.19278 8.07408 5.31938C8.06498 5.45268 8.04498 5.58601 7.99042 5.71773C7.86736 6.0148 7.63134 6.25082 7.33427 6.37388C7.20255 6.42844 7.06922 6.44844 6.93592 6.45754C6.80933 6.46617 6.65636 6.46617 6.47909 6.46616H1.60361C1.42634 6.46617 1.27338 6.46617 1.14678 6.45754C1.01349 6.44844 0.880158 6.42844 0.748439 6.37388C0.451365 6.25082 0.215341 6.0148 0.0922894 5.71773C0.0377296 5.58601 0.0177233 5.45268 0.00862868 5.31938C-9.10916e-06 5.19278 -4.72537e-06 5.03982 2.36824e-07 4.86255V1.60362C-4.72537e-06 1.42634 -9.10916e-06 1.27338 0.00862868 1.14678C0.0177233 1.01349 0.0377296 0.880158 0.0922894 0.748439C0.215341 0.451365 0.451365 0.215341 0.748439 0.0922894C0.880158 0.0377296 1.01349 0.0177234 1.14678 0.00862868C1.27338 -9.10916e-06 1.42634 -4.72537e-06 1.60362 2.36824e-07ZM0.936569 0.920315C1.08355 0.752342 1.33886 0.735321 1.50684 0.882298L3.77523 2.86714C3.9276 3.00047 4.15511 3.00047 4.30748 2.86714L6.57588 0.882298C6.74385 0.735321 6.99917 0.752342 7.14614 0.920315C7.29312 1.08829 7.2761 1.34361 7.10813 1.49058L4.83973 3.47543C4.38262 3.8754 3.70009 3.8754 3.24298 3.47543L0.974587 1.49058C0.806613 1.34361 0.789592 1.08829 0.936569 0.920315Z" fill="white"/>
</svg>
