<svg width="24" height="23" viewBox="0 0 24 23" fill="none" xmlns="http://www.w3.org/2000/svg">
<path fill-rule="evenodd" clip-rule="evenodd" d="M11.9648 3.78443e-05C5.33482 0.0202501 -0.0194674 5.18285 -9.73026e-05 11.5366C0.0154163 16.6253 3.4635 20.9129 8.23813 22.4221C8.83843 22.5209 9.06238 22.1752 9.06146 21.8734C9.06062 21.6002 9.04286 20.6947 9.03993 19.7315C6.02656 20.2726 5.2428 19.0387 5.00083 18.3926C4.86482 18.0624 4.27671 17.0436 3.76588 16.772C3.34523 16.5576 2.74361 16.0276 3.74856 16.0102C4.69351 15.9929 5.37109 16.839 5.59714 17.1833C6.68244 18.9194 8.40594 18.4253 9.09502 18.1214C9.19774 17.3736 9.5112 16.8695 9.85533 16.5809C7.18446 16.3016 4.39145 15.3182 4.37804 10.9195C4.37423 9.66885 4.83607 8.63244 5.59861 7.82511C5.47774 7.53797 5.05415 6.36051 5.70932 4.77726C5.70932 4.77726 6.7134 4.47232 9.0129 5.94594C9.97211 5.68426 10.9917 5.55178 12.0117 5.54867C13.0317 5.54556 14.0521 5.67183 15.0129 5.92765C17.3033 4.42566 18.3093 4.73884 18.3093 4.73884C18.9741 6.31807 18.5577 7.4981 18.4386 7.78596C19.206 8.58863 19.6741 9.60783 19.678 10.8728C19.6914 15.2859 16.8894 16.272 14.2203 16.5676C14.6564 16.9257 15.0335 17.6145 15.0368 18.6926C15.0415 20.2308 15.0302 21.467 15.0314 21.8552C15.0324 22.157 15.2584 22.5157 15.8581 22.3989C18.2379 21.6209 20.3034 20.1473 21.7639 18.1856C23.2245 16.224 24.0064 13.8729 23.9998 11.4634C23.9804 5.10968 18.5948 -0.0201744 11.9648 3.78443e-05Z" fill="black"/>
</svg>
