<svg width="81" height="85" viewBox="0 0 81 85" fill="none" xmlns="http://www.w3.org/2000/svg">
<path d="M40.4715 83.906C39.2479 83.9101 38.0448 83.6166 36.9833 83.0548L25.8735 77.0232C24.2156 76.1725 25.0212 75.8678 25.5681 75.6896C27.3271 75.1818 29.0106 74.473 30.5794 73.5797C30.7108 73.5231 30.8556 73.4983 31.0002 73.5079C31.1448 73.5174 31.2843 73.5608 31.4056 73.634L39.9425 78.285C40.1014 78.3621 40.2784 78.4021 40.4579 78.4015C40.6375 78.401 40.8142 78.3599 40.9726 78.2819L74.1539 60.4601C74.3092 60.3736 74.4374 60.2512 74.5262 60.1051C74.6149 59.959 74.661 59.7942 74.6599 59.6267L74.5519 24.1799C74.5515 24.0097 74.5036 23.8426 74.413 23.6945C74.3223 23.5465 74.1919 23.4225 74.0342 23.3346L40.745 5.73045C40.588 5.6494 40.411 5.6071 40.2311 5.60765C40.0513 5.6082 39.8746 5.65157 39.7181 5.73358L6.55622 23.5463C6.39804 23.6333 6.26686 23.7566 6.17537 23.9042C6.08388 24.0518 6.03519 24.2187 6.03401 24.3887L6.14203 59.8206C6.14299 59.9877 6.19203 60.1516 6.28411 60.2953C6.37619 60.4391 6.50801 60.5577 6.66606 60.6389L15.7963 65.4706C20.7432 67.7357 23.7605 65.0394 23.7523 62.3403L23.6456 27.3573C23.6449 27.1192 23.7466 26.8906 23.9283 26.7217C24.1101 26.5528 24.3569 26.4574 24.6147 26.4566L28.8258 26.4438C29.0835 26.443 29.331 26.5368 29.5137 26.7046C29.6965 26.8724 29.7996 27.1005 29.8003 27.3385L29.907 62.3246C29.9255 68.4139 26.347 71.9109 20.0951 71.93C17.3982 71.9816 14.7413 71.3234 12.4348 70.0322L3.68427 65.4298C2.62195 64.8625 1.73943 64.0476 1.12482 63.0665C0.510212 62.0855 0.185017 60.9725 0.181701 59.8388L0.0736828 24.4069C0.0670687 23.2714 0.384103 22.1542 0.992926 21.1675C1.60175 20.1808 2.48091 19.3593 3.54207 18.7857L36.7266 0.957962C37.7956 0.413592 38.9956 0.126324 40.216 0.122603C41.4365 0.118883 42.6382 0.398829 43.7105 0.93667L76.9999 18.5618C78.0621 19.1279 78.9448 19.9416 79.56 20.9216C80.1751 21.9016 80.5012 23.0137 80.5057 24.1467L80.6137 59.5936C80.6154 60.7273 80.2958 61.8419 79.6868 62.8264C79.0777 63.811 78.2004 64.6313 77.1421 65.2058L43.9608 83.0336C42.9008 83.6027 41.6972 83.9036 40.4715 83.906Z" fill="white"/>
<path d="M34.0565 47.879C34.0558 47.6409 34.1574 47.4122 34.3392 47.2433C34.5209 47.0744 34.7678 46.9791 35.0255 46.9783L39.3241 46.9652C39.5538 46.9652 39.776 47.0403 39.9513 47.1773C40.1267 47.3142 40.2438 47.5042 40.282 47.7134C40.9422 51.754 42.892 53.7858 51.6802 53.759C58.6804 53.7377 61.6593 52.2654 61.6488 48.8332C61.6428 46.8553 60.7929 45.3886 49.909 44.4373C40.8105 43.6332 35.1814 41.7891 35.1609 35.0744C35.142 28.8803 40.7834 25.1676 50.2583 25.1387C60.906 25.1063 66.1867 28.5044 66.8763 35.8275C66.8869 35.9498 66.8702 36.0728 66.8274 36.1889C66.7845 36.305 66.7163 36.4118 66.627 36.5026C66.5378 36.5934 66.4293 36.6664 66.3083 36.7171C66.1874 36.7677 66.0565 36.7949 65.9237 36.797L61.596 36.8102C61.3789 36.808 61.1688 36.7388 60.9993 36.6135C60.8299 36.4881 60.7107 36.314 60.6609 36.1188C59.6146 31.8699 57.0806 30.5191 50.2781 30.5398C42.6333 30.5631 41.7532 33.0255 41.7588 34.8688C41.7656 37.101 42.8172 37.7501 53.1414 38.9784C63.3588 40.1951 68.2166 41.9458 68.2369 48.5767C68.2573 55.2675 62.2309 59.1161 51.6999 59.1482C37.1392 59.2105 34.0723 53.0527 34.0565 47.879Z" fill="white"/>
</svg>
