<svg width="9" height="9" viewBox="0 0 9 9" fill="none" xmlns="http://www.w3.org/2000/svg">
<path fill-rule="evenodd" clip-rule="evenodd" d="M0.0569386 0.970773C0.137506 0.375696 0.662604 0 1.20838 0H2.24638C2.76823 0 3.23154 0.333933 3.39657 0.829009L3.82068 2.10135C4.00297 2.64823 3.68112 3.23454 3.12187 3.37436C2.98513 3.40854 2.93796 3.57883 3.03763 3.6785L4.4042 5.04507C4.50387 5.14474 4.67416 5.09757 4.70835 4.96083C4.84816 4.40159 5.43447 4.07973 5.98135 4.26202L7.25369 4.68614C7.74877 4.85116 8.0827 5.31447 8.0827 5.83633V6.87432C8.0827 7.4201 7.70701 7.9452 7.11193 8.02576C6.83448 8.06333 6.55144 8.0827 6.2641 8.0827C2.80453 8.0827 0 5.27817 0 1.81861C0 1.53126 0.0193747 1.24822 0.0569386 0.970773Z" fill="white"/>
</svg>
