<svg xmlns="http://www.w3.org/2000/svg">


    <symbol id="icon-logo" viewBox="0 0 54 60">
    <path fill-rule="evenodd" clip-rule="evenodd" d="M0.0513508 17.0055C0.0445194 14.7647 1.86584 12.9678 4.11508 12.9609C6.36559 12.9541 8.19784 14.7399 8.20467 16.9807C8.20649 17.5782 8.07252 18.1458 7.83217 18.6694L24.3954 28.0556C24.245 28.2498 24.1253 28.4603 24.0351 28.6847L7.47179 19.2971C6.735 20.3299 5.5145 21.0059 4.13961 21.0101C1.89038 21.0169 0.0581358 19.2311 0.0513508 17.0055ZM0.129378 42.6C0.122597 40.3756 1.94392 38.5774 4.19315 38.5706C5.56804 38.5664 6.79264 39.2349 7.53571 40.2631L24.0414 30.7748C24.133 30.9986 24.254 31.2071 24.4056 31.4016L7.8999 40.8887C8.14345 41.4108 8.28087 41.9776 8.28269 42.5751C8.28952 44.8146 6.4682 46.6128 4.21769 46.6197C1.96845 46.6266 0.136206 44.8395 0.129378 42.6ZM22.5917 55.3434C22.5852 53.238 24.2096 51.5012 26.2944 51.3151L26.2368 32.4253C26.3572 32.4401 26.4776 32.455 26.5979 32.4546C26.7195 32.4542 26.8552 32.4386 26.9755 32.4231L27.0331 51.3128C29.1024 51.4863 30.7386 53.2132 30.745 55.3185C30.7518 57.5441 28.9305 59.3563 26.68 59.3631C24.4307 59.37 22.5984 57.569 22.5917 55.3434ZM44.9899 42.4632C44.9881 41.8657 45.108 41.2981 45.3483 40.7745L28.785 31.3883C28.9355 31.1929 29.0552 30.9836 29.1454 30.7592L45.7241 40.1467C46.4596 39.114 47.666 38.438 49.0409 38.4338C51.2901 38.427 53.1224 40.2141 53.1291 42.4384C53.136 44.6779 51.3146 46.4761 49.0654 46.483C46.8149 46.4898 44.9967 44.7027 44.9899 42.4632ZM22.4355 4.12412C22.4287 1.89978 24.25 0.087647 26.4992 0.08079C28.7498 0.073929 30.582 1.87492 30.5888 4.09926C30.5952 6.2046 28.9696 7.9427 26.9014 8.12751L26.959 27.0173C26.8386 27.0037 26.7029 26.989 26.5813 26.9893C26.4609 26.9897 26.3406 27.0053 26.2204 27.0195L26.1628 8.12976C24.0768 7.95762 22.4419 6.22945 22.4355 4.12412ZM44.9119 16.8688C44.905 14.628 46.7123 12.8311 48.9628 12.8242C51.212 12.8173 53.0443 14.6032 53.0511 16.8439C53.0579 19.0696 51.2366 20.8665 48.9873 20.8733C47.6124 20.8775 46.4019 20.209 45.6601 19.1807L29.139 28.6691C29.0475 28.4453 28.9265 28.2355 28.7748 28.0423L45.2806 18.5552C45.037 18.0331 44.9137 17.4663 44.9119 16.8688Z" fill="#0097B2"/>
    <g filter="url(#filter0_d_60_555)">
    <path fill-rule="evenodd" clip-rule="evenodd" d="M15.0304 16.9889C15.0237 14.7646 16.8449 12.9525 19.0942 12.9456C21.3447 12.9387 23.177 14.7397 23.1838 16.9641C23.1879 18.3237 22.4965 19.5349 21.4579 20.2698L25.541 27.2013C25.2994 27.292 25.0885 27.4116 24.9072 27.5616L20.8241 20.63C20.3115 20.8708 19.723 21.0068 19.1188 21.0087C16.8695 21.0155 15.0372 19.2145 15.0304 16.9889ZM7.6099 29.7791C7.60312 27.5548 9.42439 25.7427 11.6749 25.7358C13.8025 25.7293 15.56 27.3356 15.748 29.3961L23.8553 29.3713C23.8416 29.4917 23.8266 29.6107 23.8269 29.7297C23.8273 29.85 23.843 29.9689 23.8575 30.0879L15.7502 30.1126C15.5747 32.1742 13.8271 33.7924 11.6995 33.7989C9.44897 33.8057 7.61668 32.0048 7.6099 29.7791ZM15.1083 42.5239C15.1015 40.2995 16.9228 38.4874 19.172 38.4806C19.7763 38.4787 20.3655 38.6111 20.8796 38.8475L24.9204 31.8925C25.1026 32.0413 25.3142 32.1597 25.5564 32.2488L21.5157 39.2052C22.5587 39.9337 23.2575 41.1406 23.2616 42.499C23.2684 44.7246 21.4471 46.5368 19.1966 46.5436C16.9474 46.5505 15.1151 44.7495 15.1083 42.5239ZM30.0119 42.4784C30.0077 41.12 30.6838 39.909 31.7223 39.174L27.6546 32.2424C27.8809 32.1519 28.0918 32.0322 28.2872 31.8822L32.3549 38.8126C32.8829 38.5729 33.4573 38.437 34.0756 38.4351C36.3261 38.4283 38.1584 40.2292 38.1652 42.4536C38.172 44.6792 36.3507 46.4913 34.1002 46.4982C31.851 46.505 30.0187 44.704 30.0119 42.4784ZM37.4761 29.3298C37.6657 27.2682 39.398 25.6513 41.5269 25.6448C43.7774 25.638 45.6084 27.4389 45.6152 29.6633C45.622 31.8889 43.802 33.701 41.5515 33.7079C39.4226 33.7144 37.6805 32.1068 37.4783 30.0464L29.3391 30.0712C29.3541 29.9521 29.3537 29.8331 29.3534 29.7129C29.353 29.5939 29.3526 29.4749 29.3369 29.3546L37.4761 29.3298ZM29.9493 16.9143C29.9425 14.6887 31.7638 12.8766 34.013 12.8697C36.2635 12.8629 38.0958 14.6639 38.1026 16.8895C38.1094 19.1151 36.2881 20.926 34.0376 20.9328C33.4334 20.9347 32.8441 20.8023 32.33 20.5658L28.274 27.5513C28.0777 27.4025 27.8661 27.2841 27.6392 27.195L31.6952 20.1943C30.6356 19.481 29.9534 18.2727 29.9493 16.9143Z" fill="#0CC0DF"/>
    </g>
    <path fill-rule="evenodd" clip-rule="evenodd" d="M24.2045 29.7285C24.2005 28.4296 25.2688 27.3667 26.5822 27.3627C27.8956 27.3587 28.9716 28.415 28.9756 29.7139C28.9796 31.0141 27.91 32.077 26.5966 32.081C25.2831 32.085 24.2084 31.0287 24.2045 29.7285Z" fill="#0097B2"/>
    <defs>
    <filter id="filter0_d_60_555" x="3.60986" y="12.8697" width="46.0054" height="41.674" filterUnits="userSpaceOnUse" color-interpolation-filters="sRGB">
    <feFlood flood-opacity="0" result="BackgroundImageFix"/>
    <feColorMatrix in="SourceAlpha" type="matrix" values="0 0 0 0 0 0 0 0 0 0 0 0 0 0 0 0 0 0 127 0" result="hardAlpha"/>
    <feOffset dy="4"/>
    <feGaussianBlur stdDeviation="2"/>
    <feComposite in2="hardAlpha" operator="out"/>
    <feColorMatrix type="matrix" values="0 0 0 0 0 0 0 0 0 0 0 0 0 0 0 0 0 0 0.25 0"/>
    <feBlend mode="normal" in2="BackgroundImageFix" result="effect1_dropShadow_60_555"/>
    <feBlend mode="normal" in="SourceGraphic" in2="effect1_dropShadow_60_555" result="shape"/>
    </filter>
    </defs>
    </symbol>



</svg>
