<svg width="20" height="22" viewBox="0 0 20 22" fill="none" xmlns="http://www.w3.org/2000/svg">
<path d="M11.3571 8.92051C10.5353 8.03601 9.423 7.54112 8.26486 7.54465C7.10671 7.54818 5.99749 8.04985 5.1811 8.93933L2.10231 12.2941C1.2859 13.1839 0.82939 14.3889 0.833216 15.6438C0.837042 16.8988 1.30089 18.1009 2.12271 18.9858C2.94453 19.8707 4.05701 20.3658 5.21542 20.3623C6.37383 20.3587 7.48327 19.8568 8.29968 18.967L9.83857 17.2896" stroke="black" stroke-width="1.66667" stroke-linecap="round" stroke-linejoin="round"/>
<path d="M8.27896 12.2752C9.10077 13.1597 10.213 13.6546 11.3712 13.6511C12.5293 13.6476 13.6385 13.1459 14.4549 12.2564L17.5337 8.90167C18.3501 8.01179 18.8066 6.80685 18.8028 5.55191C18.799 4.29697 18.3351 3.09483 17.5133 2.20995C16.6915 1.32507 15.579 0.829934 14.4206 0.833465C13.2622 0.836997 12.1528 1.33891 11.3364 2.22878L9.79746 3.90615" stroke="black" stroke-width="1.66667" stroke-linecap="round" stroke-linejoin="round"/>
</svg>
