<svg width="84" height="76" viewBox="0 0 84 76" fill="none" xmlns="http://www.w3.org/2000/svg">
<path d="M83.7836 37.6354C83.7665 32.0262 76.7997 26.7316 66.1331 23.4676C68.5588 12.4833 67.4392 3.75352 62.6148 0.972227C61.5027 0.319765 60.2039 0.013058 58.7864 0.0173793L58.7982 3.86616C59.5837 3.86377 60.2161 4.01717 60.7464 4.30896C63.0731 5.64809 64.0963 10.771 63.3308 17.3663C63.1479 18.9893 62.8457 20.6989 62.4753 22.4432C59.1255 21.625 55.469 20.9975 51.6252 20.595C49.31 17.4091 46.9103 14.5169 44.4946 11.9871C50.046 6.74062 55.263 3.85968 58.8152 3.84885L58.8035 6.83793e-05C54.1071 0.0143858 47.9694 3.41592 41.771 9.30296C35.5369 3.48834 29.3787 0.158811 24.6823 0.173128L24.6941 4.02191C28.2292 4.01113 33.4807 6.8429 39.0639 12.0209C36.6807 14.5653 34.2987 17.4549 32.037 20.6547C28.1787 21.0807 24.5261 21.7304 21.1814 22.5863C20.7833 20.8616 20.4879 19.1884 20.2781 17.5839C19.4553 10.9934 20.4302 5.86439 22.7316 4.49389C23.2429 4.18167 23.9086 4.04156 24.6941 4.03917L24.6824 0.190387C23.2479 0.19476 21.9509 0.509381 20.8258 1.16866C16.0355 3.97927 14.9861 12.6984 17.4958 23.6331C6.8835 26.9793 -0.0168269 32.2989 0.000220824 37.8908C0.0173212 43.5001 6.98417 48.7947 17.6507 52.0587C15.225 63.043 16.3446 71.7727 21.169 74.554C22.2811 75.2065 23.58 75.5132 25.0145 75.5088C29.7109 75.4945 35.8485 72.093 42.0469 66.2059C48.281 72.0206 54.4392 75.3501 59.1356 75.3358C60.5701 75.3314 61.8671 75.0168 62.9922 74.3575C67.7825 71.5469 68.8319 62.8278 66.3222 51.893C76.9004 48.5643 83.8007 43.2274 83.7836 37.6354ZM61.5133 26.1914C60.8882 28.4197 60.1096 30.7176 59.2286 33.0158C58.5242 31.6372 57.7856 30.2587 56.9788 28.8804C56.189 27.5021 55.3481 26.1584 54.5073 24.8493C56.9334 25.2043 59.2744 25.6459 61.5133 26.1914ZM53.7477 44.5962C52.4228 46.9302 51.0633 49.1435 49.6521 51.2017C47.1082 51.4338 44.5298 51.5625 41.934 51.5704C39.3553 51.5783 36.7762 51.4653 34.248 51.2659C32.8243 49.2164 31.4343 47.0287 30.0952 44.7201C28.7904 42.4631 27.6051 40.1712 26.5221 37.8618C27.5739 35.5458 28.7623 33.2294 30.0362 30.9646C31.3612 28.6306 32.7207 26.4172 34.1318 24.3591C36.6757 24.1269 39.2541 23.9983 41.8499 23.9904C44.4287 23.9825 47.0078 24.0955 49.5359 24.2949C50.9596 26.3444 52.3496 28.5321 53.6887 30.8407C54.9935 33.0977 56.1789 35.3896 57.2618 37.699C56.193 40.015 55.0217 42.3313 53.7477 44.5962ZM59.257 42.3357C60.1862 44.6456 60.9789 46.9559 61.6347 49.1976C59.3992 49.7567 57.0439 50.2299 54.6029 50.5998C55.4356 49.2683 56.2683 47.9023 57.0496 46.5019C57.831 45.1188 58.561 43.7185 59.257 42.3357ZM41.9963 60.8039C40.403 59.1519 38.8092 57.31 37.2319 55.2955C38.7691 55.3598 40.3404 55.4068 41.9286 55.402C43.5339 55.3971 45.122 55.3577 46.6759 55.2667C45.145 57.2907 43.5624 59.1423 41.9963 60.8039ZM29.2595 50.6771C26.8333 50.322 24.4923 49.8804 22.2535 49.3349C22.8785 47.1066 23.6571 44.8087 24.5382 42.5106C25.2426 43.8892 25.9811 45.2676 26.788 46.6459C27.5948 48.0242 28.4187 49.3679 29.2595 50.6771ZM41.7704 14.7224C43.3637 16.3744 44.9576 18.2163 46.5349 20.2308C44.9977 20.1665 43.4264 20.1195 41.8381 20.1243C40.2328 20.1292 38.6447 20.1686 37.0909 20.2596C38.6217 18.2356 40.2043 16.384 41.7704 14.7224ZM29.1639 24.9265C28.3312 26.258 27.4985 27.624 26.7172 29.0244C25.9358 30.4075 25.2057 31.7905 24.5097 33.1734C23.5805 30.8635 22.7878 28.5531 22.132 26.3114C24.3676 25.7696 26.7229 25.2964 29.1639 24.9265ZM13.7744 46.582C7.72096 43.9943 3.79974 40.589 3.79148 37.8793C3.78322 35.1696 7.68355 31.7231 13.7212 29.1158C15.1879 28.4728 16.7915 27.8983 18.4464 27.3582C19.4301 30.738 20.7217 34.255 22.3209 37.8573C20.7607 41.452 19.5077 44.9594 18.5616 48.3279C16.8692 47.798 15.2621 47.2161 13.7744 46.582ZM23.0374 71.2173C20.7108 69.8782 19.6876 64.7553 20.453 58.1599C20.6359 56.537 20.9381 54.8274 21.3085 53.0831C24.6583 53.9013 28.3149 54.5288 32.1586 54.9313C34.4739 58.1172 36.8736 61.0094 39.2893 63.5392C33.7379 68.7856 28.5208 71.6666 24.9686 71.6774C24.2001 71.6625 23.5507 71.5091 23.0374 71.2173ZM63.5057 57.9424C64.3285 64.5329 63.3536 69.6619 61.0523 71.0324C60.5409 71.3446 59.8753 71.4847 59.0897 71.4871C55.5546 71.4979 50.3031 68.6661 44.7199 63.4881C47.103 60.9437 49.4851 58.0541 51.7467 54.8543C55.605 54.4283 59.2577 53.7786 62.6024 52.9227C63.0005 54.6646 63.313 56.3378 63.5057 57.9424ZM70.0456 46.4105C68.5788 47.0536 66.9753 47.628 65.3204 48.1681C64.3366 44.7883 63.0451 41.2713 61.4458 37.669C63.006 34.0743 64.2591 30.5669 65.2052 27.1984C66.8975 27.7283 68.5046 28.3102 70.0094 28.9442C76.0629 31.5319 79.9841 34.9373 79.9923 37.647C79.9835 40.3567 76.0832 43.8032 70.0456 46.4105Z" fill="white"/>
</svg>
